<svg id="Camada_3" data-name="Camada 3" xmlns="http://www.w3.org/2000/svg" xmlns:xlink="http://www.w3.org/1999/xlink" viewBox="0 0 262.17 298.96"><defs><style>.cls-1,.cls-10,.cls-11,.cls-13,.cls-15,.cls-16{fill:none;}.cls-2{fill:#e02d5c;}.cls-3{clip-path:url(#clip-path);}.cls-4{fill:#012442;}.cls-12,.cls-5{fill:#fff;}.cls-6{fill:#b8dee0;}.cls-7{fill:#00c9ff;}.cls-8{fill:#9e6638;}.cls-14,.cls-9{fill:#f4ca98;}.cls-10,.cls-11,.cls-12,.cls-13,.cls-14,.cls-15,.cls-16{stroke:#012442;}.cls-10,.cls-11,.cls-14,.cls-15,.cls-16{stroke-linecap:round;stroke-linejoin:round;}.cls-10{stroke-width:4px;}.cls-11,.cls-12,.cls-13{stroke-width:6px;}.cls-12,.cls-13{stroke-miterlimit:10;}.cls-14,.cls-15{stroke-width:5px;}.cls-16{stroke-width:8px;}</style><clipPath id="clip-path"><circle class="cls-1" cx="131.09" cy="175.2" r="123.33"/></clipPath></defs><circle class="cls-2" cx="131.09" cy="175.2" r="123.33"/><g class="cls-3"><path class="cls-4" d="M218.38,300.74c-12.47,0-23.72-7.85-26.61-19.44-9.27-37.2-33-47.33-34-47.74a5.86,5.86,0,0,0,.59.22l19.83-46.56c5.19,1.85,51.15,19.87,66.88,83,3.36,13.45-5.85,26.84-20.56,29.91A30.38,30.38,0,0,1,218.38,300.74Z"/><path class="cls-5" d="M219.58,292.66c-8.31,0-15.81-5.23-17.74-13C191.19,237,157.68,222.18,157.35,222c-9.18-3.77-13.28-13.62-9.17-22s14.9-12.14,24.08-8.38c2,.84,50.29,21.24,65.1,80.66,2.23,9-3.91,17.9-13.71,19.94A19.6,19.6,0,0,1,219.58,292.66Z"/><path class="cls-4" d="M35.79,301.57a29.67,29.67,0,0,1-6.1-.63C15,297.87,5.77,284.48,9.13,271,24.86,207.92,74.77,186.29,80,184.44L99.78,231s-3.73,3.54-3.35,3.38c-1,.42-24.76,10.54-34,47.74C59.51,293.72,48.25,301.57,35.79,301.57Z"/><path class="cls-5" d="M34.59,293.5a20.31,20.31,0,0,1-4.07-.42c-9.8-2.05-15.94-11-13.71-19.94,14.81-59.42,64.88-80.66,66.93-81.5l20.31,26.92.3.28c-1.39.6-41.39,19.06-52,61.7C50.41,288.26,42.9,293.5,34.59,293.5Z"/><g id="peito"><path class="cls-5" d="M194.38,300.75s7.63-85.64-43.82-112.23l-56.43,2.24C49.07,206.69,51.54,300.82,51.54,300.82Z"/></g><path class="cls-6" d="M35.86,231.12c64.56,58.22,165.52,28.48,184.73,1.83-13.74-24.22-45.94-49-63.87-41.9-9.9-9.69-64.64,3.36-72.51-.25C81.64,192.7,57.38,201.69,35.86,231.12Z"/><path class="cls-4" d="M64.54,249.43a3.6,3.6,0,0,0-5.33,2.18c-2.79,10.7-5.1,25.23-5.11,44A3.49,3.49,0,0,0,57.74,299h0a3.49,3.49,0,0,0,3.64-3.33c0-18,2.24-32,4.89-42.17a3.62,3.62,0,0,0-1.66-4Z"/><path class="cls-4" d="M192.74,249.42a3.58,3.58,0,0,0-1.8,4.08c2.63,10.18,4.83,24.09,4.84,42.15a3.49,3.49,0,0,0,3.64,3.33h0a3.5,3.5,0,0,0,3.65-3.33c0-18.8-2.32-33.32-5.11-44a3.59,3.59,0,0,0-5.14-2.26Z"/></g><path class="cls-7" d="M81.56,246.5l8.57,22.2a12.23,12.23,0,0,0,11.4,7.81h47.29a12.22,12.22,0,0,0,11.23-7.4l9.14-21.28"/><path class="cls-5" d="M246.91,144.87c0,69.74-52.46,100.23-117.18,100.23S12.54,214.61,12.54,144.87,55.37,18.58,129.73,18.58,246.91,75.12,246.91,144.87Z"/><path class="cls-7" d="M129.73,18.58c-74.36,0-117.19,56.54-117.19,126.29A116,116,0,0,0,16,173.65c9.83,6.91,19.22,14.44,29.25,21.08,10.27,6.8,20.64,11.07,32.2,15.16,8.48,3,16.84,6.32,25.47,8.86,4.52,1,9,2,13.51,3.16a129.08,129.08,0,0,0,30.3,1.52c22.19-1.45,44.46-9.49,63.36-20.77,9.2-5.48,16.18-12.95,24.51-19.48,2.58-2,5.23-3.94,7.92-5.81a113.57,113.57,0,0,0,4.43-32.5C246.91,75.12,203.94,18.58,129.73,18.58Z"/><path class="cls-8" d="M123.65,36.73C58.73,40.27,10.79,101.43,38.28,165,43,177.8,50.84,192.62,60.5,204.21c11,2.83,21.26,7.69,31.71,12,10.74,2.64,21.33,5.88,32.29,7.82,13.85,2.45,27.79.44,41.26-3A235.69,235.69,0,0,0,203.5,208c10-12.11,22.83-34.35,26.28-56.08C240.53,84.21,190.63,33.08,123.65,36.73Z"/><path class="cls-9" d="M216,88.12c-11.34-13.26-24.47-18.93-40.64-18.73-13.52.16-33.88,9.6-45.94,22.33C117.34,79,101.56,69.58,88,69.39,75,69.19,58,74.32,47.4,88.12,32.33,107.76,31.16,148.35,71,159.64c-4.87,29.37,6.8,46.21,21.62,55.6,6.57,1.33,13.22,2.27,19.86,3.5a142.78,142.78,0,0,0,52.26-.24c16.64-8.6,30.47-26.09,26.18-60.3C233.73,148.35,232.12,107,216,88.12Z"/><path class="cls-4" d="M122,156.07c-5.74-6.11-11.45-4.8-13.19-2.68-2.79,3.38,1.71,11.87,16.21,13.28a.88.88,0,0,0,1-.89A15.06,15.06,0,0,0,122,156.07Z"/><path class="cls-10" d="M125.78,149.82c-4.53-4.83-9.9-7.37-15.16-7.23a12.14,12.14,0,0,0-9,4c-2.29,2.78-2.68,6.73-1.05,10.56"/><path class="cls-4" d="M142.9,156.1c5.74-6.11,11.44-4.8,13.19-2.68,2.78,3.38-1.71,11.86-16.21,13.28a.87.87,0,0,1-1-.89A15.06,15.06,0,0,1,142.9,156.1Z"/><path class="cls-10" d="M137.66,149.8c4.54-4.83,9.91-7.37,15.17-7.23a12.17,12.17,0,0,1,9,4c2.28,2.77,2.67,6.72,1,10.56"/><path class="cls-11" d="M13.6,170.71c4.76,7.66,62.53,52,118,52,55.25,0,108.47-37,114.28-51"/><path class="cls-11" d="M208.19,202.39c18.13-26.12,27.67-59.35,20.88-90.72-6.67-30.82-29.78-56.78-59.35-68.74a103.11,103.11,0,0,0-88.19,5.64c-24.94,13.9-41.87,38.92-47.47,66.28-5.43,26.48-.47,55.09,15.25,77.47a93.45,93.45,0,0,0,6.2,7.86"/><ellipse class="cls-12" cx="86.52" cy="115.22" rx="31.56" ry="30.17"/><ellipse class="cls-12" cx="172.44" cy="114.06" rx="31.56" ry="30.17"/><path class="cls-5" d="M157.91,197.43a17.26,17.26,0,0,0,4.33-4.77,14.15,14.15,0,0,0-.9-15.92,10.18,10.18,0,0,0-4.86-3.58c-2.69-.86-5.66-.25-8.28.79s-11.36,4.4-18.28,4.4S115.07,175,112.45,174s-5.59-1.65-8.28-.79a10.28,10.28,0,0,0-4.86,3.58,14.19,14.19,0,0,0-.9,15.92,18.74,18.74,0,0,0,4.34,4.77c11.33,8.91,27.75,8.9,27.75,8.9A47.55,47.55,0,0,0,157.91,197.43Z"/><path class="cls-13" d="M157.91,197.43a17.26,17.26,0,0,0,4.33-4.77,14.15,14.15,0,0,0-.9-15.92,10.18,10.18,0,0,0-4.86-3.58c-2.69-.86-5.66-.25-8.28.79s-11.36,4.4-18.28,4.4S115.07,175,112.45,174s-5.59-1.65-8.28-.79a10.28,10.28,0,0,0-4.86,3.58,14.19,14.19,0,0,0-.9,15.92,18.74,18.74,0,0,0,4.34,4.77c11.33,8.91,27.75,8.9,27.75,8.9A47.55,47.55,0,0,0,157.91,197.43Z"/><line class="cls-13" x1="110.48" y1="172.04" x2="110.48" y2="199.81"/><line class="cls-13" x1="123.38" y1="175.55" x2="123.38" y2="203.33"/><line class="cls-13" x1="138.42" y1="177.2" x2="138.42" y2="204.98"/><line class="cls-13" x1="151.41" y1="175.55" x2="151.41" y2="203.33"/><path class="cls-8" d="M153.11,47c.66-9.21-5.42-18.5-14.23-21.74-1.35-.5-2.94-.85-4.2-.14a3.71,3.71,0,0,0-1.57,3.82,10.92,10.92,0,0,0,1.8,4l-7.59-4c-3.38-1.77-6.83-3.57-10.6-4.23s-8,0-10.76,2.57a4.73,4.73,0,0,0-1.44,2.2c-.66,2.6,2,4.75,4.38,6.13-3.09-1.45-6.31-2.92-9.73-3S92,34.33,91,37.54c-.82,2.6.33,5.49,2.21,7.49a24.22,24.22,0,0,0,6.87,4.54"/><path class="cls-11" d="M156.35,47.23C162,34.85,128.79,9.31,136.42,31.82c-7.3-8.23-46.06-15.11-28.48,2.94C92.31,23.7,78.86,43.13,98.32,50.07"/><path class="cls-14" d="M41.22,89.36A109.61,109.61,0,0,1,55.78,67.13c1.12-1.36,2.28-2.67,3.46-4A33.33,33.33,0,0,0,47.78,51.45c-3.42,2.38-12.42,10.23-20.39,26.2-4.87,9.75-9.11,20.65-10.51,31.6,4.36,1.91,10.89,3,17,3.2C35.85,104.6,37.61,96.89,41.22,89.36Z"/><path class="cls-15" d="M41.05,69.46a44,44,0,0,1,7.34,4.82"/><path class="cls-14" d="M218.63,85.5a67.81,67.81,0,0,1,10.86,26.87,47,47,0,0,0,15-3.12c-1.39-11-5.64-21.85-10.5-31.6-8-16-17-23.82-20.4-26.2a34,34,0,0,0-10.94,10.82C208.68,69.63,214.79,76.84,218.63,85.5Z"/><path class="cls-15" d="M220.31,69.46a46.1,46.1,0,0,0-6.86,4.42"/><path class="cls-15" d="M164,218.5c16.29-8.6,29.82-26.09,25.62-60.3C231.53,148.35,230,107,214.16,88.12c-11.08-13.26-23.93-18.93-39.75-18.73-13.24.16-33.15,9.6-44.95,22.33C117.66,79,102.22,69.58,89,69.39c-12.78-.2-29.39,4.93-39.75,18.73-14.74,19.64-15.89,60.23,23.06,71.52C67.52,189,79,206.85,93.45,216.24"/><ellipse class="cls-5" cx="178.81" cy="50.79" rx="13.49" ry="11.58" transform="translate(65.7 198.29) rotate(-68.37)"/><ellipse class="cls-5" cx="150.64" cy="77.39" rx="8.43" ry="7.24" transform="translate(23.18 188.9) rotate(-68.37)"/><path class="cls-4" d="M104.28,111.29l-17.17,3.6,1-17.8a19.88,19.88,0,0,0-4,0c-10.23,1-17.68,9.75-16.64,19.54s10.21,16.91,20.43,15.9,17.7-9.75,16.65-19.53A15.47,15.47,0,0,0,104.28,111.29Z"/><path class="cls-4" d="M190.71,110.57l-17.17,3.59,1-17.8a19.18,19.18,0,0,0-4,0c-10.23,1-17.68,9.74-16.64,19.53s10.2,16.91,20.43,15.91S192,122,191,112.25C190.92,111.68,190.82,111.12,190.71,110.57Z"/><path class="cls-16" d="M248.46,145c0,70.67-53.16,101.56-118.73,101.56S11,215.71,11,145,54.38,17.09,129.73,17.09C204.92,17.09,248.46,74.37,248.46,145Z"/><path class="cls-16" d="M81.56,242.5l8.57,26.2a12.23,12.23,0,0,0,11.4,7.81h47.29a12.22,12.22,0,0,0,11.23-7.4l9.14-24.28"/><line class="cls-16" x1="103.39" y1="261.69" x2="145.77" y2="261.69"/></svg>